# xmcd
#
# Track frame offsets: 
#        150
#        12450
#        28080
#        46169
#        56249
#        77624
#        97922
#        122778
#        141564
#        172129
#        189072
#        210305
#
# Disc length: 3114 seconds
#
# Revision: 0
# Processed by: cddbd v1.4PL0 Copyright (c) Steve Scherf et al.
# Submitted via: ExactAudioCopy v0.90b4
#
DISCID=a00c280c
DTITLE=Van Morrison - Utrecht 27 desember 2002, disc 1
DYEAR=2002
DGENRE=Celtic
TTITLE0=All Blues
TTITLE1=My Little Suede Shoes
TTITLE2=Meet Me In The Indian Summer
TTITLE3=Lost John
TTITLE4=Russian Roulette
TTITLE5=Beside You
TTITLE6=Muleskinner Blues
TTITLE7=Choppin' Wood
TTITLE8=Stop Drinking That Wine
TTITLE9=Don't Worry About A Thing
TTITLE10=She Gives Me Religion
TTITLE11=Vanlose Stairway - Trans-Euro Train
EXTD=
EXTT0=
EXTT1=
EXTT2=
EXTT3=
EXTT4=
EXTT5=
EXTT6=
EXTT7=
EXTT8=
EXTT9=
EXTT10=
EXTT11=
PLAYORDER=
